<svg width="28" height="23" viewBox="0 0 28 23" fill="none" xmlns="http://www.w3.org/2000/svg">
<path d="M27.0684 3.58333C26.5095 2.97222 25.7376 2.61111 24.8593 2.61111H20.4411V2.55556C20.4411 1.86111 20.1749 1.19444 19.7224 0.75C19.27 0.277778 18.6578 0 17.9924 0H10.0076C9.31559 0 8.70342 0.277778 8.25095 0.75C7.79848 1.22222 7.53232 1.86111 7.53232 2.55556V2.61111H3.14068C2.26236 2.61111 1.49049 2.97222 0.931559 3.58333C0.372624 4.16667 0 5 0 5.88889V19.7222C0 20.6389 0.346008 21.4444 0.931559 22.0278C1.49049 22.6111 2.28897 23 3.14068 23H24.8593C25.7376 23 26.5095 22.6389 27.0684 22.0278C27.6274 21.4444 28 20.6111 28 19.7222V5.88889C28 4.97222 27.654 4.16667 27.0684 3.58333ZM26.616 19.7222H26.5894C26.5894 20.2222 26.403 20.6667 26.0837 21C25.7643 21.3333 25.3384 21.5278 24.8593 21.5278H3.14068C2.6616 21.5278 2.23574 21.3333 1.91635 21C1.59696 20.6667 1.41065 20.2222 1.41065 19.7222V5.88889C1.41065 5.38889 1.59696 4.94444 1.91635 4.61111C2.23574 4.27778 2.6616 4.08333 3.14068 4.08333H8.27757C8.67681 4.08333 8.9962 3.75 8.9962 3.33333V2.52778C8.9962 2.22222 9.10266 1.94444 9.28897 1.75C9.47529 1.55556 9.74144 1.44444 10.0342 1.44444H17.9924C18.2852 1.44444 18.5513 1.55556 18.7376 1.75C18.924 1.94444 19.0304 2.22222 19.0304 2.52778V3.33333C19.0304 3.75 19.3498 4.08333 19.7491 4.08333H24.8859C25.365 4.08333 25.7909 4.27778 26.1103 4.61111C26.4297 4.94444 26.616 5.38889 26.616 5.88889V19.7222Z" fill="white"/>
<path d="M14 7C12.3415 7 10.8293 7.68293 9.7561 8.7561C8.65854 9.85366 8 11.3415 8 13C8 14.6585 8.68293 16.1707 9.7561 17.2439C10.8537 18.3415 12.3415 19 14 19C15.6585 19 17.1707 18.3171 18.2439 17.2439C19.3415 16.1463 20 14.6585 20 13C20 11.3415 19.3171 9.82927 18.2439 8.7561C17.1707 7.68293 15.6585 7 14 7ZM17.3171 16.3415C16.4634 17.1707 15.2927 17.7073 14 17.7073C12.7073 17.7073 11.5366 17.1707 10.6829 16.3415C9.82927 15.4878 9.31707 14.3171 9.31707 13.0244C9.31707 11.7317 9.85366 10.561 10.6829 9.70732C11.5366 8.85366 12.7073 8.34146 14 8.34146C15.2927 8.34146 16.4634 8.87805 17.3171 9.70732C18.1707 10.561 18.6829 11.7317 18.6829 13.0244C18.7073 14.3171 18.1707 15.4878 17.3171 16.3415Z" fill="white"/>
<path d="M23.0587 11.5006C23.9683 11.5006 24.7057 10.765 24.7057 9.8577C24.7057 8.95038 23.9683 8.21484 23.0587 8.21484C22.149 8.21484 21.4116 8.95038 21.4116 9.8577C21.4116 10.765 22.149 11.5006 23.0587 11.5006Z" fill="white"/>
</svg>
