<svg width="151" height="32" viewBox="0 0 151 32" fill="none" xmlns="http://www.w3.org/2000/svg"><circle cx="17" cy="17" r="15" fill="url(#paint0_linear)"/><path d="M4.608 14.155s-2.035 4.715.565 10.349c2.6 5.633 11.619 5.31 18.884 1.896 7.265-3.412 10.9-9.837 3.238-18.244-7.662-8.407-20.557.869-22.687 5.999z" fill="#fff"/><path d="M10.245 20.733s-1.857-4.646 1.237-5.71c3.093-1.066 2.776 5.915 4.503 7.177 1.727 1.263 5.439.962 6.288-1.922.85-2.884-4.325-7.168-.557-9.508 3.767-2.34 7.215 4.51 6.97 8.64-.245 4.13-14.579 9.056-18.441 1.323z" fill="#fff"/><path d="M27.295 8.156C19.633-.251 7.24 4.332 4.256 14.073c0 0-1.682 4.798.917 10.431.772 1.673 2.114 2.817 3.805 3.514-1.37-1.466-2.808-3.61-3.205-6.41-.817-5.75 3.937-14.881 11.81-2.465l1.17-.283s-3.378-8.71 2.641-10.467c4.905-1.432 8.99 6.114 9.522 11.763 1.402-3.271.636-7.329-3.62-12z" fill="#232323"/><path d="M4.256 14.073s-1.683 4.797.917 10.43c.772 1.673 2.114 2.817 3.804 3.514a13.39 13.39 0 0 1-1.754-2.33C3.028 21 3.302 11.512 12.749 6.607c4.42-2.295 8.422-2.02 11.558-.958-7.556-4.704-17.431-.13-20.05 8.424z" fill="#000"/><path d="M18.309 17.428c-1.462-.545-2.504-1.813-4.31-3.371-2.639-2.277-4.59-.978-4.59-.978 2.032-.603 4.82.774 8.174 6.064l1.17-.284s-.218-.564-.444-1.43z" fill="#000"/><path d="M16.966 20.267a1.689 1.689 0 0 1 3.366-.27 1.688 1.688 0 0 1-3.366.27z" fill="#FFC200"/><path d="M18.932 21.4a1.686 1.686 0 0 1-1.817-1.546 1.653 1.653 0 0 1 .045-.507c-.145.273-.22.588-.194.92.074.928.887 1.62 1.817 1.546a1.694 1.694 0 0 0 1.513-1.309 1.7 1.7 0 0 1-1.364.896z" fill="#FF9D00"/><path d="M20.343 19.75s-3.388 1.624-3.834 1.427c-.447-.197-.043-2.811 1.76-3.016 1.802-.205 3.447.756 2.074 1.59z" fill="#FFC200"/><path d="M19.698 19.433s-2.214 1.06-2.506.931c-.292-.128-.028-1.836 1.15-1.97 1.178-.135 2.253.494 1.356 1.039z" fill="#FFD86C"/><path d="M20.637 19.249s-3.388 1.623-3.835 1.426c-.242-.107-.231-.927.116-1.687-.623.85-.708 2.058-.41 2.189.447.197 3.835-1.426 3.835-1.426.357-.217.506-.441.506-.652-.06.05-.13.1-.212.15z" fill="#FF9D00"/><path d="M18.562 20.817s1.312-.723 1.514-.69c.201.033-.083.76-.74.96-.658.201-1.154-.039-.774-.27z" fill="#FFD86C"/><ellipse cx="11.899" cy="20.142" rx="1.098" ry="1.096" transform="rotate(-17 11.9 20.142)" fill="#000"/><path d="M12.244 19.63a.398.398 0 1 1-.761.231.398.398 0 0 1 .76-.232z" fill="#fff"/><ellipse cx="24.057" cy="16.017" rx="1.098" ry="1.096" transform="rotate(-17 24.057 16.017)" fill="#000"/><ellipse cx="24.02" cy="15.62" rx=".398" ry=".397" transform="rotate(-17 24.02 15.62)" fill="#fff"/><path d="M29.158 17.17a1.5 1.5 0 0 1-2.87.878 1.5 1.5 0 0 1 2.87-.877zM11.863 22.997a1.5 1.5 0 0 1-2.87.877 1.5 1.5 0 0 1 2.87-.877z" fill="#FFB3B9"/><path d="M10.25 8.99s4.64-3.437 9.736-3.374c5.096.063 7.894 3.33 9.448 6.067 1.555 2.736 1.919 5.141 1.767 6.416-.152 1.274-.134-1.604-1.33-4.048-1.197-2.444-4.152-7.517-8.722-6.536-4.57.98-4.066 5.566-3.903 7.06.162 1.495-2.276-1.013-3.55-1.786-1.273-.774-4.118-1.119-5.9.445-1.781 1.563-2.698 4.844-2.585 7.34.113 2.495-.952-2.4.564-5.95 1.518-3.55 4.475-5.635 4.475-5.635z" fill="#333"/><path d="M47.356 25c.157-.077.242-.09.255-.038.013.05.06.025.138-.078a76.755 76.755 0 0 1 2.435-4.412c.864-1.452 1.663-2.653 2.397-3.604l6.363 7.014c.21-.128.282-.263.216-.404a.642.642 0 0 1-.059-.405c.026-.18.014-.321-.039-.424a2.507 2.507 0 0 0-.314-.482c-.053-.064-.079-.16-.079-.289 0-.128-.052-.366-.157-.713a9.473 9.473 0 0 0-.236-.713 33.123 33.123 0 0 0-1.866-2.87 25.97 25.97 0 0 0-2.337-2.834c.315-.462.7-.97 1.16-1.522.457-.552.935-1.118 1.433-1.696a62.614 62.614 0 0 1 1.532-1.715 45.194 45.194 0 0 1 1.493-1.541c.13-.129.288-.264.471-.405.183-.141.34-.276.471-.404.21-.206.328-.354.354-.444.026-.09.013-.237-.04-.443-.052-.128-.071-.225-.058-.289.013-.064-.046-.16-.177-.289-.733 0-1.486.238-2.259.713a13.487 13.487 0 0 0-2.278 1.792 28.823 28.823 0 0 0-2.16 2.332 86.748 86.748 0 0 0-1.906 2.37l-.746-.655a49.534 49.534 0 0 0-1.807-1.272 22.578 22.578 0 0 0-1.748-1.06 15.648 15.648 0 0 0-1.827-.848 15.843 15.843 0 0 0-2.082-.636c-.105-.025-.183-.025-.236 0l-.235.116c-.131.077-.216.148-.256.212-.039.064-.085.148-.137.25a.576.576 0 0 0 .02.444.964.964 0 0 1 .098.404l.55.424c.995.668 2.082 1.407 3.26 2.216 1.179.81 2.436 1.702 3.771 2.679-.314.462-.648.976-1.002 1.541a38.063 38.063 0 0 0-1.02 1.735c-.328.59-.63 1.181-.904 1.772a7.537 7.537 0 0 0-.57 1.658c-.052.18-.052.385 0 .616.053.232.079.437.079.617v.828c0 .219.013.47.039.752z" fill="#000"/><path fill-rule="evenodd" clip-rule="evenodd" d="M108.562 24.483c-.028.177-.071.35-.127.517a4.016 4.016 0 0 1-.551-.894 49.924 49.924 0 0 0-.438-.95 59.198 59.198 0 0 1-.919-2.99 197.207 197.207 0 0 1-.862-3.185 48.243 48.243 0 0 0-1.695-.028h-1.809c-.603 0-1.173.005-1.71.014-.537.01-1.003.023-1.399.042a5.329 5.329 0 0 0-.113.391 4.674 4.674 0 0 0-.282.796 11.31 11.31 0 0 0-.198.922c-.057.326-.123.666-.198 1.02-.075.354-.17.708-.283 1.062.23 0 .455-.07.677-.209l.044-.029c.235-.158.476-.237.72-.237-.169.168-.315.354-.438.559-.122.205-.23.475-.325.81a.636.636 0 0 1-.169.293c-.094.103-.16.182-.198.238a5.768 5.768 0 0 0-.113.238.412.412 0 0 1-.141.181.906.906 0 0 1-.34.126c-.094.01-.16-.014-.197-.07a1.886 1.886 0 0 1-.297-.713c-.047-.251-.09-.516-.127-.796 0-.503.066-1.155.198-1.956.132-.8.301-1.658.508-2.57a1.406 1.406 0 0 1-.452-.21 1.66 1.66 0 0 0-.395-.21 1.592 1.592 0 0 0-.51-.153c-.131-.01-.272-.08-.423-.21l1.724-.447c.094 0 .217-.018.367-.056.226-.875.453-1.713.679-2.514.226-.801.442-1.481.65-2.04.15-.428.334-.922.55-1.48.217-.56.472-1.095.764-1.607.292-.513.621-.955.989-1.328.367-.372.768-.605 1.201-.698a3.001 3.001 0 0 1 .819-.112c.151 0 .264.07.34.21.075.14.188.312.339.516.094.168.183.312.268.434.085.12.174.367.269.74.452 1.36.876 2.724 1.271 4.093.396 1.37.745 2.66 1.046 3.87l1.724.364-.311.055a.388.388 0 0 1-.24.182c-.104.028-.203.07-.297.126-.094.056-.188.13-.282.223a1.515 1.515 0 0 1-.283.224c.264 1.006.471 1.881.622 2.626.15.745.245 1.304.282 1.677.038.372.066.782.085 1.23.019.446.028.856.028 1.229 0 .279-.014.507-.042.684zm-8.238-11.735a66.266 66.266 0 0 0-.876 2.864c.98-.112 1.959-.177 2.939-.196.98-.018 1.95.019 2.911.112-.396-1.509-.782-2.976-1.159-4.4a36.35 36.35 0 0 0-1.215-3.815c-.32.429-.622.899-.904 1.411a19.363 19.363 0 0 0-.848 1.76 29.696 29.696 0 0 0-.848 2.264z" fill="#000"/><path d="M114.893 24.792c.19.176.393.24.607.193.381-.07.911-.193 1.589-.37a95.029 95.029 0 0 0 2.25-.615 70.623 70.623 0 0 0 4.947-1.618 20.858 20.858 0 0 0 1.964-.827c.548-.27.929-.522 1.143-.756.119-.141.25-.329.393-.563.143-.235.214-.481.214-.74 0-.28-.024-.427-.071-.439-.048-.012-.096-.076-.143-.194.024-.164-.06-.246-.25-.246-.286 0-.607.082-.965.246-.857.329-1.72.64-2.589.933-.869.293-1.768.557-2.696.791-.929.235-1.911.446-2.947.634a56.546 56.546 0 0 1-3.303.492c.047-.985.083-2.14.107-3.465a85.272 85.272 0 0 0-.018-3.923 36.488 36.488 0 0 0-.25-3.5c-.131-1.044-.315-1.777-.554-2.2a.505.505 0 0 0-.25-.228 16.735 16.735 0 0 1-.321-.123 1.516 1.516 0 0 1-.411-.211c-.131-.094-.22-.083-.268.035.119 1.243.179 2.41.179 3.5 0 1.091-.024 2.146-.071 3.167-.048 1.02-.096 2.011-.143 2.973a28.916 28.916 0 0 0 0 2.885c.024.375.071.756.143 1.143.071.387.202.756.392 1.108.167.376.268.692.304.95.036.258.22.47.554.633.119.047.273.159.464.335zM134.912 24c.046-.227.074-.505.086-.835.011-.33-.018-.578-.086-.743-.114-.227-.131-.48-.051-.758.079-.278.097-.552.051-.82a624.625 624.625 0 0 1-.788-6.095 179.45 179.45 0 0 1-.651-6.095c-.023-.103-.068-.165-.137-.185a.546.546 0 0 1-.205-.124 1.22 1.22 0 0 0-.206-.14.971.971 0 0 0-.308-.108 1.6 1.6 0 0 1-.292-.077c-.079-.031-.142-.026-.188.015-.091.083-.137.3-.137.65 0 1.052.006 2.16.017 3.326.012 1.165.052 2.346.12 3.543.069 1.196.183 2.377.343 3.542a24.34 24.34 0 0 0 .685 3.326c.091.248.234.449.428.603.194.155.371.315.531.48.137.144.268.263.394.356.126.093.257.139.394.139zM80.043 26c.127-.149.19-.372.19-.67 0-.299-.012-.621-.037-.97.076-.123.146-.328.209-.614.064-.285.12-.528.171-.726.051-.174.09-.298.115-.373.025-.074.025-.223 0-.447-.33-1.59-.45-3.297-.362-5.122.089-1.826.425-3.707 1.009-5.645.634.15 1.262.497 1.884 1.043a12.97 12.97 0 0 1 1.732 1.863 23.82 23.82 0 0 1 1.466 2.142c.444.733.819 1.373 1.123 1.919.254.422.476.844.666 1.267.19.422.4.838.629 1.248.228.41.476.82.742 1.23a7.2 7.2 0 0 0 1.009 1.21c.127.124.19.211.19.26 0 .05.114.075.343.075.152 0 .298.037.438.112.14.075.285.05.438-.075a3.55 3.55 0 0 0 .323-.242l.324-.316c0-.472-.026-.87-.076-1.192a5.068 5.068 0 0 0-.229-.913c-.101-.286-.222-.59-.362-.913-.14-.323-.285-.72-.437-1.192.025-.596.095-1.267.209-2.012.114-.745.235-1.496.362-2.254.127-.757.266-1.478.419-2.16a19.7 19.7 0 0 1 .456-1.733 7.985 7.985 0 0 0-.152-.838c-.076-.336-.089-.627-.038-.876.05-.347.102-.72.152-1.117.051-.398.064-.72.038-.969a1.637 1.637 0 0 1-.285.037.88.88 0 0 0-.286.075.764.764 0 0 0-.438.335c-.114.174-.222.31-.323.41a3.916 3.916 0 0 0-.495.596 2.44 2.44 0 0 0-.343.857c-.076.422-.184 1-.323 1.732-.14.733-.28 1.509-.42 2.329a94.3 94.3 0 0 0-.38 2.421 21.593 21.593 0 0 0-.21 2.012c-.355-.621-.773-1.36-1.255-2.217a19.468 19.468 0 0 0-1.695-2.514 11.922 11.922 0 0 0-2.246-2.18c-.85-.633-1.834-1.024-2.95-1.173.025-.125.012-.38-.038-.764-.051-.385-.114-.64-.19-.764-.051-.1-.102-.236-.153-.41-.05-.173-.152-.26-.304-.26a.99.99 0 0 0-.343.055 2.257 2.257 0 0 1-.343.094.437.437 0 0 0-.171.093l-.024.023-.11.107c-.05.05-.107.1-.17.15-.064.049-.096.123-.096.223a58.232 58.232 0 0 0-.913 4.19 29.956 29.956 0 0 0-.476 4.676c-.038 1.59.088 3.148.38 4.676A11.785 11.785 0 0 0 80.043 26z" fill="#000"/><path fill-rule="evenodd" clip-rule="evenodd" d="M150.562 24.51c-.028.168-.071.331-.127.49a3.778 3.778 0 0 1-.551-.847c-.142-.3-.288-.6-.438-.9-.321-.9-.627-1.844-.919-2.832-.292-.989-.579-1.994-.862-3.018a50.993 50.993 0 0 0-1.695-.026h-1.809c-.603 0-1.173.004-1.71.013-.537.008-1.003.022-1.399.04-.038.105-.075.229-.113.37-.113.23-.207.48-.282.754a9.79 9.79 0 0 0-.198.874c-.057.309-.123.63-.198.966-.075.335-.17.67-.283 1.006.23 0 .455-.066.677-.198l.044-.027c.235-.15.476-.225.721-.225-.17.159-.316.335-.438.53-.123.194-.231.45-.325.767a.6.6 0 0 1-.17.278c-.094.097-.16.172-.198.225-.038.07-.075.146-.113.225a.4.4 0 0 1-.141.172.94.94 0 0 1-.339.12c-.095.008-.16-.014-.198-.067a1.732 1.732 0 0 1-.297-.675 14.69 14.69 0 0 1-.127-.754c0-.477.066-1.095.198-1.853.132-.76.301-1.57.508-2.436a1.455 1.455 0 0 1-.452-.198 1.68 1.68 0 0 0-.395-.199 1.666 1.666 0 0 0-.509-.145c-.132-.01-.273-.075-.424-.199l1.724-.423c.094 0 .217-.018.367-.053.226-.83.452-1.624.679-2.383.226-.758.442-1.403.65-1.932.15-.406.334-.873.551-1.403.216-.53.471-1.037.763-1.522.292-.485.621-.904.989-1.257.367-.353.768-.574 1.201-.662a3.147 3.147 0 0 1 .819-.106c.151 0 .264.066.34.199.075.132.188.295.339.49.094.158.183.295.268.41.085.114.174.348.269.701a97.56 97.56 0 0 1 1.271 3.878c.396 1.297.745 2.52 1.046 3.666l1.724.344-.311.053a.386.386 0 0 1-.24.172 1.21 1.21 0 0 0-.297.12 1.47 1.47 0 0 0-.282.211 1.508 1.508 0 0 1-.283.212c.264.953.471 1.782.622 2.488.15.706.245 1.235.282 1.588.038.353.066.741.085 1.165.019.424.028.812.028 1.165 0 .265-.014.48-.042.648zm-8.238-11.117a59.784 59.784 0 0 0-.876 2.713c.98-.106 1.959-.168 2.939-.185.98-.018 1.95.017 2.911.105-.396-1.429-.782-2.819-1.159-4.169a33.146 33.146 0 0 0-1.215-3.613c-.32.406-.622.852-.904 1.337a17.96 17.96 0 0 0-.848 1.668 27.25 27.25 0 0 0-.848 2.144zM74.562 24.51c-.028.168-.07.331-.127.49a3.785 3.785 0 0 1-.551-.847c-.142-.3-.288-.6-.438-.9-.32-.9-.627-1.844-.919-2.832-.292-.989-.58-1.994-.862-3.018a51.013 51.013 0 0 0-1.695-.026h-1.81c-.602 0-1.172.004-1.709.013-.537.008-1.003.022-1.399.04-.038.105-.075.229-.113.37-.113.23-.207.48-.282.754a10.23 10.23 0 0 0-.198.874c-.057.309-.123.63-.198.966-.075.335-.17.67-.283 1.006.23 0 .455-.066.677-.198l.044-.027c.235-.15.476-.225.72-.225-.169.159-.315.335-.438.53-.122.194-.23.45-.325.767a.596.596 0 0 1-.169.278c-.094.097-.16.172-.198.225-.038.07-.075.146-.113.225a.395.395 0 0 1-.141.172.938.938 0 0 1-.34.12c-.094.008-.16-.014-.197-.067a1.738 1.738 0 0 1-.297-.675c-.047-.238-.09-.49-.127-.754 0-.477.066-1.095.198-1.853.132-.76.301-1.57.508-2.436a1.445 1.445 0 0 1-.452-.198 1.697 1.697 0 0 0-.395-.199 1.659 1.659 0 0 0-.51-.145c-.131-.01-.272-.075-.423-.199l1.724-.423c.094 0 .217-.018.367-.053.226-.83.453-1.624.679-2.383.226-.758.442-1.403.65-1.932.15-.406.334-.873.55-1.403.217-.53.472-1.037.764-1.522.292-.485.621-.904.989-1.257.367-.353.768-.574 1.2-.662a3.142 3.142 0 0 1 .82-.106c.151 0 .264.066.34.199.075.132.188.295.339.49.094.158.183.295.268.41.085.114.175.348.269.701a98.23 98.23 0 0 1 1.271 3.878 97.94 97.94 0 0 1 1.046 3.666l1.724.344-.31.053a.39.39 0 0 1-.241.172 1.218 1.218 0 0 0-.297.12 1.473 1.473 0 0 0-.282.211 1.474 1.474 0 0 1-.283.212c.264.953.471 1.782.622 2.488.15.706.245 1.235.282 1.588a19 19 0 0 1 .085 1.165c.019.424.028.812.028 1.165 0 .265-.014.48-.042.648zm-8.238-11.117a60.93 60.93 0 0 0-.876 2.713 32.82 32.82 0 0 1 2.939-.185c.98-.018 1.95.017 2.91.105-.395-1.429-.781-2.819-1.158-4.169a33.037 33.037 0 0 0-1.215-3.613c-.32.406-.622.852-.904 1.337a18.21 18.21 0 0 0-.848 1.668 27.253 27.253 0 0 0-.848 2.144z" fill="#000"/><defs><linearGradient id="paint0_linear" x1="2" y1="2" x2="2" y2="32" gradientUnits="userSpaceOnUse"><stop stop-color="#00C7FF"/><stop offset="1" stop-color="#00FFED"/></linearGradient></defs></svg>