<svg width="18" height="21" viewBox="0 0 18 21" fill="none" xmlns="http://www.w3.org/2000/svg">
<g id="Group Copy">
<path id="Shape" fill-rule="evenodd" clip-rule="evenodd" d="M15.981 1.7029C16.5456 1.7029 17.0418 1.93841 17.4011 2.33696C17.7776 2.71739 18 3.24275 18 3.84058V12.8623C18 13.442 17.7605 13.9855 17.4011 14.3659C17.0418 14.7645 16.5456 15 15.981 15H2.01901C1.47148 15 0.958175 14.7464 0.598859 14.3659C0.222433 13.9855 0 13.4601 0 12.8623V3.84058C0 3.26087 0.239544 2.71739 0.598859 2.33696C0.958175 1.93841 1.45437 1.7029 2.01901 1.7029H4.84221V1.66667C4.84221 1.21377 5.01331 0.797101 5.30418 0.48913C5.59506 0.181159 5.98859 0 6.43346 0H11.5665C11.9943 0 12.3878 0.181159 12.6787 0.48913C12.9696 0.778986 13.1407 1.21377 13.1407 1.66667V1.7029H15.981ZM17.0932 12.8623H17.1103V3.84058C17.1103 3.51449 16.9905 3.22464 16.7852 3.00725C16.5798 2.78986 16.3061 2.66304 15.9981 2.66304H12.6958C12.4392 2.66304 12.2338 2.44565 12.2338 2.17391V1.64855C12.2338 1.44928 12.1654 1.26812 12.0456 1.1413C11.9259 1.01449 11.7548 0.942029 11.5665 0.942029H6.45057C6.26236 0.942029 6.09125 1.01449 5.97148 1.1413C5.85171 1.26812 5.78327 1.44928 5.78327 1.64855V2.17391C5.78327 2.44565 5.57795 2.66304 5.32129 2.66304H2.01901C1.71103 2.66304 1.43726 2.78986 1.23194 3.00725C1.02662 3.22464 0.906844 3.51449 0.906844 3.84058V12.8623C0.906844 13.1884 1.02662 13.4783 1.23194 13.6957C1.43726 13.913 1.71103 14.0399 2.01901 14.0399H15.981C16.289 14.0399 16.5627 13.913 16.7681 13.6957C16.9734 13.4783 17.0932 13.1884 17.0932 12.8623Z" fill="white"/>
<g id="Shape_2" filter="url(#filter0_d)">
<path fill-rule="evenodd" clip-rule="evenodd" d="M5.6299 5.54049C6.48212 4.77394 7.68298 4.28613 9.00006 4.28613C10.3171 4.28613 11.518 4.77394 12.3702 5.54049C13.2224 6.30704 13.7648 7.38718 13.7648 8.57185C13.7648 9.75652 13.2418 10.8192 12.3702 11.6032C11.518 12.3698 10.3171 12.8576 9.00006 12.8576C7.68298 12.8576 6.50149 12.3872 5.6299 11.6032C4.77768 10.8367 4.23535 9.75652 4.23535 8.57185C4.23535 7.38718 4.75831 6.32446 5.6299 5.54049ZM9.00006 11.9342C10.0266 11.9342 10.9563 11.5509 11.6342 10.9586C12.3121 10.3489 12.7382 9.51261 12.7189 8.58927C12.7189 7.66592 12.3121 6.82969 11.6342 6.21993C10.9563 5.6276 10.0266 5.24432 9.00006 5.24432C7.97352 5.24432 7.04382 5.61017 6.36591 6.21993C5.70737 6.82969 5.28126 7.66592 5.28126 8.58927C5.28126 9.51261 5.68801 10.3489 6.36591 10.9586C7.04382 11.5509 7.97352 11.9342 9.00006 11.9342Z" fill="white"/>
</g>
<ellipse id="Oval" cx="14.8235" cy="6.42885" rx="1.05882" ry="1.07143" fill="white"/>
</g>
<defs>
<filter id="filter0_d" x="0.235352" y="4.28613" width="17.5294" height="16.5714" filterUnits="userSpaceOnUse" color-interpolation-filters="sRGB">
<feFlood flood-opacity="0" result="BackgroundImageFix"/>
<feColorMatrix in="SourceAlpha" type="matrix" values="0 0 0 0 0 0 0 0 0 0 0 0 0 0 0 0 0 0 127 0" result="hardAlpha"/>
<feOffset dy="4"/>
<feGaussianBlur stdDeviation="2"/>
<feComposite in2="hardAlpha" operator="out"/>
<feColorMatrix type="matrix" values="0 0 0 0 0 0 0 0 0 0 0 0 0 0 0 0 0 0 0.25 0"/>
<feBlend mode="normal" in2="BackgroundImageFix" result="effect1_dropShadow"/>
<feBlend mode="normal" in="SourceGraphic" in2="effect1_dropShadow" result="shape"/>
</filter>
</defs>
</svg>
