<svg width="26" height="26" viewBox="0 0 26 26" fill="none" xmlns="http://www.w3.org/2000/svg">
<rect x="0.75" y="0.75" width="24.5" height="24.5" rx="12.25" fill="#3E78E4" stroke="#F4F7FD" strokeWidth="1.5"/>
<path fill-rule="evenodd" clip-rule="evenodd" d="M18.5418 8.24879C18.9496 8.24879 19.308 8.4215 19.5675 8.71377C19.8394 8.99275 20 9.37802 20 9.81643V16.4324C20 16.8575 19.827 17.256 19.5675 17.535C19.308 17.8273 18.9496 18 18.5418 18H8.45817C8.06274 18 7.69202 17.814 7.43251 17.535C7.16065 17.256 7 16.8708 7 16.4324V9.81643C7 9.3913 7.173 8.99275 7.43251 8.71377C7.69202 8.4215 8.05038 8.24879 8.45817 8.24879H10.4971V8.22222C10.4971 7.8901 10.6207 7.58454 10.8308 7.3587C11.0409 7.13285 11.3251 7 11.6464 7H15.3536C15.6625 7 15.9468 7.13285 16.1568 7.3587C16.3669 7.57126 16.4905 7.8901 16.4905 8.22222V8.24879H18.5418ZM19.3451 16.4324H19.3574V9.81643C19.3574 9.57729 19.2709 9.36473 19.1226 9.20531C18.9743 9.04589 18.7766 8.9529 18.5542 8.9529H16.1692C15.9838 8.9529 15.8356 8.79348 15.8356 8.5942V8.20894C15.8356 8.0628 15.7861 7.92995 15.6996 7.83696C15.6131 7.74396 15.4895 7.69082 15.3536 7.69082H11.6587C11.5228 7.69082 11.3992 7.74396 11.3127 7.83696C11.2262 7.92995 11.1768 8.0628 11.1768 8.20894V8.5942C11.1768 8.79348 11.0285 8.9529 10.8432 8.9529H8.45817C8.23574 8.9529 8.03802 9.04589 7.88973 9.20531C7.74144 9.36473 7.65494 9.57729 7.65494 9.81643V16.4324C7.65494 16.6715 7.74144 16.8841 7.88973 17.0435C8.03802 17.2029 8.23574 17.2959 8.45817 17.2959H18.5418C18.7643 17.2959 18.962 17.2029 19.1103 17.0435C19.2586 16.8841 19.3451 16.6715 19.3451 16.4324Z" fill="white"/>
<path fill-rule="evenodd" clip-rule="evenodd" d="M11.0658 11.0624C11.6813 10.5003 12.5486 10.1426 13.4998 10.1426C14.451 10.1426 15.3183 10.5003 15.9338 11.0624C16.5493 11.6246 16.9409 12.4167 16.9409 13.2854C16.9409 14.1542 16.5633 14.9335 15.9338 15.5084C15.3183 16.0706 14.451 16.4283 13.4998 16.4283C12.5486 16.4283 11.6953 16.0833 11.0658 15.5084C10.4503 14.9463 10.0586 14.1542 10.0586 13.2854C10.0586 12.4167 10.4363 11.6374 11.0658 11.0624ZM13.4998 15.7512C14.2412 15.7512 14.9126 15.4701 15.4022 15.0357C15.8918 14.5886 16.1996 13.9753 16.1856 13.2982C16.1856 12.6211 15.8918 12.0079 15.4022 11.5607C14.9126 11.1263 14.2412 10.8452 13.4998 10.8452C12.7584 10.8452 12.0869 11.1135 11.5973 11.5607C11.1217 12.0079 10.814 12.6211 10.814 13.2982C10.814 13.9753 11.1077 14.5886 11.5973 15.0357C12.0869 15.4701 12.7584 15.7512 13.4998 15.7512Z" fill="white"/>
<ellipse cx="17.7061" cy="11.7134" rx="0.764706" ry="0.785714" fill="white"/>
</svg>
