<svg width="11" height="11" viewBox="0 0 11 11" fill="none" xmlns="http://www.w3.org/2000/svg">
<path fill-rule="evenodd" clip-rule="evenodd" d="M7.59647 0.442795C8.18785 -0.147598 9.14551 -0.147598 9.73689 0.442795L10.5572 1.2602C11.1476 1.85154 11.1476 2.8093 10.5572 3.40073L4.31798 9.64059C4.31585 9.64492 4.31221 9.64766 4.30916 9.64996L4.30915 9.64996L4.30914 9.64997L4.30666 9.65191L4.30576 9.65271C4.30576 9.65451 4.30467 9.6552 4.30312 9.65619L4.30205 9.65689C4.30134 9.65738 4.30057 9.65798 4.2998 9.65878C4.29527 9.66179 4.29072 9.66556 4.28619 9.66932L4.28617 9.66933L4.28616 9.66934L4.28615 9.66935C4.28158 9.67313 4.27703 9.67691 4.27252 9.67989C4.26805 9.68288 4.26285 9.68588 4.25764 9.68888L4.25763 9.68889C4.25226 9.69199 4.24688 9.69509 4.24231 9.69817C4.24061 9.69978 4.23853 9.70082 4.23616 9.70111C4.22773 9.70641 4.21855 9.71048 4.20898 9.71333C4.20586 9.71626 4.20586 9.71626 4.20292 9.71626L0.400572 10.9848C0.369132 10.9943 0.336557 10.9994 0.303697 11C0.2233 11.0003 0.146027 10.9686 0.0887361 10.9121C0.00720239 10.8317 -0.0210172 10.7117 0.0161038 10.6034L1.28153 6.79772C1.28153 6.79614 1.28229 6.79535 1.28304 6.79459C1.28376 6.79384 1.28447 6.79311 1.28447 6.79166C1.28597 6.7873 1.28745 6.78363 1.28891 6.78C1.2905 6.77606 1.29208 6.77215 1.29365 6.76742C1.29518 6.76584 1.29594 6.76431 1.29669 6.7628C1.29743 6.76131 1.29816 6.75983 1.29962 6.75833C1.3028 6.75362 1.30513 6.74973 1.30747 6.74581C1.30965 6.74215 1.31185 6.73847 1.31477 6.73408C1.31477 6.73257 1.31555 6.73181 1.31633 6.73105C1.31712 6.73029 1.3179 6.72954 1.3179 6.72802C1.32092 6.72341 1.32476 6.71882 1.32859 6.71423L1.32859 6.71422C1.33231 6.70977 1.33603 6.70532 1.33901 6.70084C1.34096 6.70084 1.34169 6.69963 1.34268 6.69801C1.34328 6.69702 1.34397 6.69589 1.34507 6.69478L1.3572 6.68256L7.06067 0.981575L7.59647 0.442795ZM1.99905 6.89764L4.10605 9.00474L9.3796 3.73069L7.2726 1.62358L1.99905 6.89764ZM1.70227 7.45773L3.54298 9.29852L0.778979 10.2189L1.70227 7.45773ZM9.80952 3.30082L10.1304 2.97683C10.4839 2.62244 10.4852 2.04919 10.1334 1.6931L9.31 0.869633C8.95545 0.515435 8.38093 0.515435 8.02648 0.869633L7.70243 1.19353L9.80952 3.30082Z" fill="black"/>
</svg>
